# xmcd
#
# Track frame offsets:
#	150
#	20298
#	33914
#	52458
#	69628
#	81493
#	92786
#	112095
#	125415
#	143319
#	160927
#
# Disc length: 2427 seconds
#
# Revision: 0
# Processed by: cddbd v1.5.2PL0 Copyright (c) Steve Scherf et al.
# Submitted via: EZCDAudioConverter 1.3.4.1
#
DISCID=9609790b
DTITLE=BOMBINO - NOMAD
DYEAR=1900
DGENRE=
TTITLE0=AMIDININE (my friend)
TTITLE1=AHULAKAMINE HULAN (he greets you fondly)
TTITLE2=AZAMANE TILIADE (the era of young girls)
TTITLE3=IMUHAR (freemen)
TTITLE4=NIAMEY JAM
TTITLE5=ADINAT (people)
TTITLE6=HER TENERE (in the desert)
TTITLE7=IMIDIWAN (my friends)
TTITLE8=AMAN (water)
TTITLE9=ZIGZAN (patience)
TTITLE10=TAMIDITINE (my darling)
EXTD=
EXTT0=
EXTT1=
EXTT2=
EXTT3=
EXTT4=
EXTT5=
EXTT6=
EXTT7=
EXTT8=
EXTT9=
EXTT10=
PLAYORDER=
